<svg width="16" height="16" viewBox="0 0 16 16" fill="none" xmlns="http://www.w3.org/2000/svg">
<g clip-path="url(#clip0_572_2971)">
<path d="M12.6452 6.95284L12.4219 7.12745L12.4571 7.40873C12.4825 7.61229 12.4999 7.80271 12.4999 8.00004C12.4999 8.19737 12.4825 8.38779 12.4571 8.59136L12.4219 8.87263L12.6452 9.04724L13.9344 10.0554L12.7452 12.1128L11.2262 11.5027L10.9651 11.3978L10.7399 11.5667C10.4191 11.8073 10.0826 12.0103 9.72361 12.1574L9.4589 12.2659L9.41829 12.5491L9.18633 14.1667H6.81346L6.5815 12.5491L6.54089 12.2659L6.27617 12.1574C5.91371 12.0088 5.5788 11.812 5.26475 11.5704L5.03847 11.3963L4.77356 11.5027L3.25459 12.1128L2.06536 10.0554L3.35456 9.04724L3.57786 8.87263L3.5427 8.59136C3.51731 8.38826 3.49989 8.191 3.49989 8.00004C3.49989 7.80908 3.51731 7.61182 3.5427 7.40873L3.57786 7.12745L3.35456 6.95284L2.06536 5.94469L3.25459 3.88733L4.77356 4.49736L5.03473 4.60225L5.25989 4.43337C5.58071 4.19276 5.91722 3.9898 6.27617 3.84269L6.54089 3.7342L6.5815 3.45101L6.81346 1.83337H9.18633L9.41829 3.45101L9.4589 3.7342L9.72361 3.84269C10.0861 3.99124 10.421 4.18811 10.735 4.42969L10.9613 4.60375L11.2262 4.49736L12.7452 3.88733L13.9344 5.94469L12.6452 6.95284ZM1.99205 6.07153C1.9915 6.07249 1.99092 6.07345 1.99036 6.07441L1.99205 6.07153ZM5.16656 8.00004C5.16656 9.56285 6.43708 10.8334 7.99989 10.8334C9.5627 10.8334 10.8332 9.56285 10.8332 8.00004C10.8332 6.43723 9.5627 5.16671 7.99989 5.16671C6.43708 5.16671 5.16656 6.43723 5.16656 8.00004Z" stroke="white"/>
</g>
<defs>
<clipPath id="clip0_572_2971">
<rect width="16" height="16" fill="white"/>
</clipPath>
</defs>
</svg>
