<svg width="688" height="688" viewBox="0 0 688 688" fill="none" xmlns="http://www.w3.org/2000/svg">
<g clip-path="url(#clip0_226_1037)">
<path d="M422.931 72.4127C422.931 72.4127 475.641 -5.26461 503.296 0.283677C551.931 26.6385 514.39 133.144 514.39 133.144L422.931 72.4127Z" fill="#878791"/>
<path d="M266.189 72.4127C266.189 72.4127 213.479 -5.2646 185.824 0.283693C137.189 26.6385 174.73 133.145 174.73 133.145L266.189 72.4127Z" fill="#878791"/>
<path d="M344 688C454.016 688 593.841 663.427 625.602 543.778C656.891 425.904 586.32 341.724 565.88 299.71C549.239 265.504 543.692 245.165 543.692 199.864C543.692 44.5481 344 44.3747 344 44.3747C344 44.3747 144.308 44.5481 144.308 199.864C144.308 245.165 138.761 265.504 122.12 299.71C101.68 341.722 31.1093 425.904 62.3985 543.778C94.1594 663.428 233.985 688 344 688Z" fill="url(#paint0_linear_226_1037)"/>
<path d="M342.613 105.419C311.204 105.419 285.742 138.413 285.742 179.113V442.306C285.742 483.007 311.204 516 342.613 516C374.022 516 399.484 483.007 399.484 442.306V179.113C399.484 138.413 374.022 105.419 342.613 105.419Z" fill="url(#paint1_linear_226_1037)"/>
<path d="M421.638 543.363C421.638 599.998 368.489 581.817 343.98 581.817C319.472 581.817 266.322 599.998 266.322 543.363C266.322 486.728 301.09 504.909 343.98 504.909C386.87 504.909 421.638 486.727 421.638 543.363Z" fill="url(#paint2_linear_226_1037)"/>
<path d="M155.399 254.899C167.654 254.899 177.587 239.998 177.587 221.617C177.587 203.235 167.654 188.335 155.399 188.335C143.145 188.335 133.211 203.235 133.211 221.617C133.211 239.998 143.145 254.899 155.399 254.899Z" fill="white"/>
<path d="M532.595 254.899C544.849 254.899 554.783 239.998 554.783 221.617C554.783 203.235 544.849 188.335 532.595 188.335C520.341 188.335 510.407 203.235 510.407 221.617C510.407 239.998 520.341 254.899 532.595 254.899Z" fill="white"/>
<path d="M155.355 196.968C167.612 196.968 177.548 210.009 177.548 226.097C177.548 242.184 167.612 255.226 155.355 255.226C143.098 255.226 133.161 242.184 133.161 226.097C133.161 210.009 143.098 196.968 155.355 196.968Z" fill="url(#paint3_linear_226_1037)"/>
<path d="M532.645 196.968C544.902 196.968 554.839 210.009 554.839 226.097C554.839 242.184 544.902 255.226 532.645 255.226C520.388 255.226 510.452 242.184 510.452 226.097C510.452 210.009 520.388 196.968 532.645 196.968Z" fill="url(#paint4_linear_226_1037)"/>
<g filter="url(#filter0_d_226_1037)">
<path d="M373.711 267.118L373.697 267.106C364.862 259.185 353.737 255.226 342.612 255.226C331.487 255.226 320.363 259.184 311.526 267.106L311.513 267.118C272.152 302.398 249.677 352.658 249.677 405.396V507.653C249.677 522.988 262.16 535.419 277.558 535.419H303.245C316.91 535.419 330.39 531.796 342.613 525.71C354.836 531.796 368.314 535.419 381.981 535.419H407.668C423.066 535.419 435.548 522.988 435.548 507.653V405.396C435.546 352.658 413.071 302.399 373.711 267.118Z" fill="url(#paint5_linear_226_1037)"/>
</g>
<path d="M342.613 525.71C346.676 527.717 350.935 530.041 355.097 530.9V486.719C355.097 479.909 349.506 474.387 342.613 474.387C335.719 474.387 330.129 479.909 330.129 486.719V530.9C334.29 530.058 338.55 527.716 342.613 525.71Z" fill="#5E5E64" fill-opacity="0.45"/>
<path d="M413.914 324.489H401.468C392.856 324.489 384.362 326.494 376.661 330.345L358.886 339.232C349.516 343.918 338.487 343.918 329.117 339.232L311.342 330.345C303.639 326.494 295.145 324.489 286.535 324.489H274.089C253.063 324.489 234.217 340.232 233.118 361.23C231.945 383.623 249.755 402.147 271.892 402.147H277.439C310.721 402.147 310.718 428.613 344 428.613C377.282 428.613 377.285 402.147 410.567 402.147H416.114C438.251 402.147 456.061 383.623 454.888 361.23C453.786 340.232 434.938 324.489 413.914 324.489Z" fill="#9E9EA6"/>
<path d="M271.886 379.956C281.077 379.956 288.527 372.506 288.527 363.315C288.527 354.125 281.077 346.674 271.886 346.674C262.696 346.674 255.245 354.125 255.245 363.315C255.245 372.506 262.696 379.956 271.886 379.956Z" fill="url(#paint6_linear_226_1037)"/>
<path d="M416.108 379.956C425.299 379.956 432.749 372.506 432.749 363.315C432.749 354.125 425.299 346.674 416.108 346.674C406.918 346.674 399.467 354.125 399.467 363.315C399.467 372.506 406.918 379.956 416.108 379.956Z" fill="url(#paint7_linear_226_1037)"/>
</g>
<defs>
<filter id="filter0_d_226_1037" x="241.677" y="251.226" width="201.871" height="296.194" filterUnits="userSpaceOnUse" color-interpolation-filters="sRGB">
<feFlood flood-opacity="0" result="BackgroundImageFix"/>
<feColorMatrix in="SourceAlpha" type="matrix" values="0 0 0 0 0 0 0 0 0 0 0 0 0 0 0 0 0 0 127 0" result="hardAlpha"/>
<feOffset dy="4"/>
<feGaussianBlur stdDeviation="4"/>
<feColorMatrix type="matrix" values="0 0 0 0 0 0 0 0 0 0 0 0 0 0 0 0 0 0 0.45 0"/>
<feBlend mode="normal" in2="BackgroundImageFix" result="effect1_dropShadow_226_1037"/>
<feBlend mode="normal" in="SourceGraphic" in2="effect1_dropShadow_226_1037" result="shape"/>
</filter>
<linearGradient id="paint0_linear_226_1037" x1="344" y1="44.3747" x2="344" y2="688" gradientUnits="userSpaceOnUse">
<stop offset="0.125" stop-color="#1BC8A9"/>
<stop offset="0.875" stop-color="#2F877C"/>
</linearGradient>
<linearGradient id="paint1_linear_226_1037" x1="342.613" y1="105.419" x2="342.613" y2="516" gradientUnits="userSpaceOnUse">
<stop stop-color="#298479"/>
<stop offset="0.635417" stop-color="#56A597"/>
</linearGradient>
<linearGradient id="paint2_linear_226_1037" x1="343.98" y1="502.129" x2="343.98" y2="584.597" gradientUnits="userSpaceOnUse">
<stop stop-color="#464655"/>
<stop offset="1" stop-color="#464655" stop-opacity="0.85"/>
</linearGradient>
<linearGradient id="paint3_linear_226_1037" x1="155.355" y1="255.226" x2="155.355" y2="196.968" gradientUnits="userSpaceOnUse">
<stop stop-color="#136758"/>
<stop offset="1" stop-color="#202020"/>
</linearGradient>
<linearGradient id="paint4_linear_226_1037" x1="532.645" y1="255.226" x2="532.645" y2="196.968" gradientUnits="userSpaceOnUse">
<stop stop-color="#136758"/>
<stop offset="1" stop-color="#202020"/>
</linearGradient>
<linearGradient id="paint5_linear_226_1037" x1="342.613" y1="255.226" x2="342.613" y2="535.419" gradientUnits="userSpaceOnUse">
<stop stop-color="#DFDFE4"/>
<stop offset="1" stop-color="#81818A"/>
</linearGradient>
<linearGradient id="paint6_linear_226_1037" x1="271.886" y1="346.674" x2="271.886" y2="379.956" gradientUnits="userSpaceOnUse">
<stop stop-color="#464655"/>
<stop offset="1" stop-color="#464655" stop-opacity="0.45"/>
</linearGradient>
<linearGradient id="paint7_linear_226_1037" x1="416.108" y1="346.674" x2="416.108" y2="379.956" gradientUnits="userSpaceOnUse">
<stop stop-color="#464655"/>
<stop offset="1" stop-color="#464655" stop-opacity="0.45"/>
</linearGradient>
<clipPath id="clip0_226_1037">
<rect width="688" height="688" fill="white"/>
</clipPath>
</defs>
</svg>
