<svg width="222" height="60" viewBox="0 0 222 60" fill="none" xmlns="http://www.w3.org/2000/svg">
<g filter="url(#filter0_d_12_11)">
<path d="M52.167 47L40.391 33.048C43.335 31.96 45.703 30.168 47.367 27.672C49.031 25.24 49.863 22.296 49.863 18.968C49.863 14.552 48.391 10.968 45.575 8.216C42.759 5.528 38.983 4.12 34.375 4.12H10.375V47H24.519V34.328H24.711L35.271 47H52.167ZM24.519 15.448H30.919C32.455 15.448 33.735 15.832 34.631 16.536C35.527 17.304 36.039 18.264 36.039 19.416C36.039 20.696 35.527 21.72 34.631 22.488C33.735 23.256 32.455 23.64 30.919 23.64H24.519V15.448ZM51.2375 4.12V47H65.3815V35.672H73.2535C78.3095 35.672 82.4055 34.2 85.4775 31.256C88.5495 28.312 90.1495 24.472 90.1495 19.608C90.1495 15 88.6775 11.288 85.8615 8.408C82.9815 5.592 79.2055 4.12 74.5975 4.12H51.2375ZM65.3815 24.984V15.448H71.0135C72.4215 15.448 73.7015 15.896 74.7255 16.792C75.7495 17.688 76.3255 18.776 76.3255 20.056C76.3255 21.528 75.7495 22.744 74.7255 23.64C73.7015 24.536 72.4215 24.984 71.0135 24.984H65.3815Z" fill="#A2EFE1"/>
<path d="M111.403 4.12H97.195V31.064C97.195 32.472 96.747 33.496 95.979 34.264C95.147 35.032 94.059 35.416 92.779 35.416C91.435 35.416 90.411 35.032 89.707 34.2C89.003 33.368 88.555 31.96 88.427 29.976L74.283 32.728C74.859 37.464 76.779 41.176 80.043 43.864C83.243 46.616 87.531 47.96 92.779 47.96C98.347 47.96 102.827 46.424 106.283 43.352C109.675 40.28 111.403 36.184 111.403 31.064V4.12ZM128.609 13.528C123.425 13.528 119.073 15.192 115.489 18.392C111.905 21.592 110.113 25.752 110.113 30.744C110.113 35.8 111.905 39.96 115.489 43.16C119.073 46.36 123.425 47.96 128.609 47.96C133.729 47.96 138.145 46.36 141.729 43.16C145.313 39.96 147.105 35.8 147.105 30.744C147.105 25.752 145.313 21.592 141.729 18.392C138.145 15.192 133.729 13.528 128.609 13.528ZM128.609 36.632C127.073 36.632 125.793 36.056 124.769 34.904C123.745 33.752 123.297 32.408 123.297 30.744C123.297 29.144 123.745 27.736 124.769 26.584C125.793 25.432 127.073 24.856 128.609 24.856C130.145 24.856 131.361 25.432 132.385 26.584C133.409 27.736 133.921 29.144 133.921 30.744C133.921 32.408 133.409 33.752 132.385 34.904C131.361 36.056 130.145 36.632 128.609 36.632ZM162.746 13.528C157.562 13.528 153.21 15.192 149.626 18.392C146.042 21.592 144.25 25.752 144.25 30.744C144.25 35.8 146.042 39.96 149.626 43.16C153.21 46.36 157.562 47.96 162.746 47.96C167.866 47.96 172.282 46.36 175.866 43.16C179.45 39.96 181.242 35.8 181.242 30.744C181.242 25.752 179.45 21.592 175.866 18.392C172.282 15.192 167.866 13.528 162.746 13.528ZM162.746 36.632C161.21 36.632 159.93 36.056 158.906 34.904C157.882 33.752 157.434 32.408 157.434 30.744C157.434 29.144 157.882 27.736 158.906 26.584C159.93 25.432 161.21 24.856 162.746 24.856C164.282 24.856 165.498 25.432 166.522 26.584C167.546 27.736 168.058 29.144 168.058 30.744C168.058 32.408 167.546 33.752 166.522 34.904C165.498 36.056 164.282 36.632 162.746 36.632ZM215.315 4.12H201.107V31.064C201.107 32.472 200.659 33.496 199.891 34.264C199.059 35.032 197.971 35.416 196.691 35.416C195.347 35.416 194.323 35.032 193.619 34.2C192.915 33.368 192.467 31.96 192.339 29.976L178.195 32.728C178.771 37.464 180.691 41.176 183.955 43.864C187.155 46.616 191.443 47.96 196.691 47.96C202.259 47.96 206.739 46.424 210.195 43.352C213.587 40.28 215.315 36.184 215.315 31.064V4.12Z" fill="#4EC4B5"/>
</g>
<defs>
<filter id="filter0_d_12_11" x="0.375" y="0.119995" width="220.94" height="59.84" filterUnits="userSpaceOnUse" color-interpolation-filters="sRGB">
<feFlood flood-opacity="0" result="BackgroundImageFix"/>
<feColorMatrix in="SourceAlpha" type="matrix" values="0 0 0 0 0 0 0 0 0 0 0 0 0 0 0 0 0 0 127 0" result="hardAlpha"/>
<feOffset dx="-2" dy="4"/>
<feGaussianBlur stdDeviation="4"/>
<feColorMatrix type="matrix" values="0 0 0 0 0 0 0 0 0 0 0 0 0 0 0 0 0 0 0.45 0"/>
<feBlend mode="normal" in2="BackgroundImageFix" result="effect1_dropShadow_12_11"/>
<feBlend mode="normal" in="SourceGraphic" in2="effect1_dropShadow_12_11" result="shape"/>
</filter>
</defs>
</svg>
